<svg width="296" height="56" viewBox="0 0 296 56" fill="none" xmlns="http://www.w3.org/2000/svg">
<path d="M0.5 34.9545V25.5L33.4091 11.6818V22.0227L11.6818 30.1364L12.0227 29.6364V30.8409L11.6818 30.3182L33.4091 38.4545V48.7727L0.5 34.9545ZM51.223 49L42.132 14.0909H53.2911L57.9957 36.4545H58.2911L63.3366 14.0909H74.223L79.4048 36.2955H79.7002L84.2684 14.0909H95.4275L86.3139 49H74.4275L68.973 28.6591H68.5866L63.132 49H51.223ZM117.696 49.6591C114.044 49.6591 110.893 48.9394 108.241 47.5C105.605 46.0455 103.575 43.9773 102.15 41.2955C100.741 38.5985 100.037 35.3939 100.037 31.6818C100.037 28.0758 100.749 24.9242 102.173 22.2273C103.597 19.5152 105.605 17.4091 108.196 15.9091C110.787 14.3939 113.84 13.6364 117.355 13.6364C119.84 13.6364 122.113 14.0227 124.173 14.7955C126.234 15.5682 128.014 16.7121 129.514 18.2273C131.014 19.7424 132.181 21.6136 133.014 23.8409C133.847 26.053 134.264 28.5909 134.264 31.4545V34.2273H103.923V27.7727H123.923C123.908 26.5909 123.628 25.5379 123.082 24.6136C122.537 23.6894 121.787 22.9697 120.832 22.4545C119.893 21.9242 118.81 21.6591 117.582 21.6591C116.34 21.6591 115.226 21.9394 114.241 22.5C113.257 23.0455 112.476 23.7955 111.9 24.75C111.325 25.6894 111.022 26.7576 110.991 27.9545V34.5227C110.991 35.947 111.272 37.197 111.832 38.2727C112.393 39.3333 113.188 40.1591 114.219 40.75C115.249 41.3409 116.476 41.6364 117.9 41.6364C118.885 41.6364 119.779 41.5 120.582 41.2273C121.385 40.9545 122.075 40.553 122.65 40.0227C123.226 39.4924 123.658 38.8409 123.946 38.0682L134.15 38.3636C133.726 40.6515 132.794 42.6439 131.355 44.3409C129.931 46.0227 128.06 47.3333 125.741 48.2727C123.423 49.197 120.741 49.6591 117.696 49.6591ZM142.18 49V2.45454H153.294V20.0682H153.521C153.976 19.0076 154.62 17.9848 155.453 17C156.301 16.0152 157.377 15.2121 158.68 14.5909C159.998 13.9545 161.574 13.6364 163.408 13.6364C165.832 13.6364 168.097 14.2727 170.203 15.5455C172.324 16.8182 174.036 18.7803 175.339 21.4318C176.642 24.0833 177.294 27.4621 177.294 31.5682C177.294 35.5227 176.665 38.8333 175.408 41.5C174.165 44.1667 172.483 46.1667 170.362 47.5C168.256 48.8333 165.915 49.5 163.339 49.5C161.582 49.5 160.059 49.2121 158.771 48.6364C157.483 48.0606 156.4 47.303 155.521 46.3636C154.658 45.4242 153.991 44.4167 153.521 43.3409H153.18V49H142.18ZM153.067 31.5455C153.067 33.4242 153.317 35.0606 153.817 36.4545C154.332 37.8485 155.067 38.9318 156.021 39.7045C156.991 40.4621 158.15 40.8409 159.498 40.8409C160.862 40.8409 162.021 40.4621 162.976 39.7045C163.93 38.9318 164.65 37.8485 165.135 36.4545C165.635 35.0606 165.885 33.4242 165.885 31.5455C165.885 29.6667 165.635 28.0379 165.135 26.6591C164.65 25.2803 163.93 24.2121 162.976 23.4545C162.036 22.697 160.877 22.3182 159.498 22.3182C158.135 22.3182 156.976 22.6894 156.021 23.4318C155.067 24.1742 154.332 25.2348 153.817 26.6136C153.317 27.9924 153.067 29.6364 153.067 31.5455ZM206.903 0.272724L191.903 56H182.426L197.426 0.272724H206.903ZM248.172 34.9545L215.262 48.7727V38.4545L236.99 30.3182L236.672 30.8409V29.6364L236.99 30.1364L215.262 22.0227V11.6818L248.172 25.5V34.9545ZM270.44 28.1818V11.4091H278.554C279.735 11.4091 280.781 11.6364 281.69 12.0909C282.614 12.5455 283.326 13.1894 283.826 14.0227C284.342 14.8561 284.599 15.8561 284.599 17.0227C284.599 18.2045 284.334 19.2121 283.804 20.0455C283.273 20.8636 282.538 21.4924 281.599 21.9318C280.675 22.3561 279.607 22.5682 278.395 22.5682H272.94V19.2727H277.531C278.213 19.2727 278.766 19.0833 279.19 18.7045C279.614 18.3258 279.826 17.7652 279.826 17.0227C279.826 16.25 279.614 15.6894 279.19 15.3409C278.766 14.9773 278.22 14.7955 277.554 14.7955H275.031V28.1818H270.44ZM281.349 20.5L285.054 28.1818H280.031L276.622 20.5H281.349ZM277.099 38.1818C274.584 38.1818 272.228 37.7121 270.031 36.7727C267.834 35.8333 265.902 34.5303 264.235 32.8636C262.569 31.197 261.266 29.2652 260.326 27.0682C259.387 24.8712 258.917 22.5152 258.917 20C258.917 17.4848 259.387 15.1288 260.326 12.9318C261.266 10.7348 262.569 8.80303 264.235 7.13636C265.902 5.4697 267.834 4.16667 270.031 3.22727C272.228 2.28788 274.584 1.81818 277.099 1.81818C279.614 1.81818 281.97 2.28788 284.167 3.22727C286.364 4.16667 288.296 5.4697 289.963 7.13636C291.629 8.80303 292.932 10.7348 293.872 12.9318C294.811 15.1288 295.281 17.4848 295.281 20C295.281 22.5152 294.811 24.8712 293.872 27.0682C292.932 29.2652 291.629 31.197 289.963 32.8636C288.296 34.5303 286.364 35.8333 284.167 36.7727C281.97 37.7121 279.614 38.1818 277.099 38.1818ZM277.099 33.2273C279.554 33.2273 281.781 32.6364 283.781 31.4545C285.781 30.2576 287.372 28.6591 288.554 26.6591C289.751 24.6591 290.349 22.4394 290.349 20C290.349 17.5606 289.751 15.3409 288.554 13.3409C287.372 11.3409 285.773 9.75 283.758 8.56818C281.758 7.37121 279.538 6.77272 277.099 6.77272C274.66 6.77272 272.44 7.37121 270.44 8.56818C268.44 9.75 266.842 11.3409 265.645 13.3409C264.463 15.3409 263.872 17.5606 263.872 20C263.872 22.4394 264.463 24.6591 265.645 26.6591C266.842 28.6591 268.44 30.2576 270.44 31.4545C272.44 32.6364 274.66 33.2273 277.099 33.2273Z" fill="#EDEDED"/>
</svg>
